<svg xmlns="http://www.w3.org/2000/svg" viewBox="0 0 999.5 999.5"><defs><style>.cls-1{fill:#3d5afe}.cls-2{fill:#651fff}.cls-3{fill:#2979ff}.cls-4{fill:#00b0ff}.cls-5{fill:#d500f9}.cls-6{fill:#00e5ff}.cls-7{fill:#f50057}.cls-8{fill:#1de9b6}.cls-9{fill:#ff1744}.cls-10{fill:#fff}.cls-11{fill:#ff3d00}.cls-12{fill:#76ff03}.cls-13{fill:#00e676}.cls-14{fill:#ffc400}.cls-15{fill:#ff9100}.cls-16{fill:#ffea00}.cls-17{fill:#c6ff00}.cls-18{fill:#4d4d4d}.cls-19{fill:#ccc}.cls-20{fill:gray}</style></defs><g id="Layer_2" data-name="Layer 2"><g id="Circle_Palette" data-name="Circle Palette"><path d="M989.93,401.91a504.92,504.92,0,0,1,0,195.68l-488.4-97.48-.82-.55Z" class="cls-1"/><path d="M989.93,401.91,500.71,499.56l-.23-.16.37-.55L915.3,222.06A496.88,496.88,0,0,1,989.93,401.91Z" class="cls-2"/><path d="M501.53,500.11l488.4,97.48a496.59,496.59,0,0,1-74.17,179.16Z" class="cls-3"/><path d="M501.53,500.11,915.76,776.75A502.17,502.17,0,0,1,777.89,915L500.39,500l0-.09Z" class="cls-4"/><path d="M915.3,222.06,500.85,498.85l277-414.35A502.27,502.27,0,0,1,915.3,222.06Z" class="cls-5"/><path d="M500.39,500l277.5,415a496.86,496.86,0,0,1-180.1,74.89Z" class="cls-6"/><path d="M777.89,84.5l-277,414.35-.6.4L597.59,9.58A496.84,496.84,0,0,1,777.89,84.5Z" class="cls-7"/><path d="M500.39,500l97.4,489.93a504.87,504.87,0,0,1-195.11.19L500.11,500l.08-.12.14,0Z" class="cls-8"/><path d="M597.59,9.58,500.25,499.25,402.87,9.39a504.44,504.44,0,0,1,194.72.19Z" class="cls-9"/><polygon points="500.71 499.56 501.53 500.11 500.37 499.87 500.33 499.64 500.33 499.63 500.71 499.56" class="cls-10"/><polygon points="500.85 498.85 500.48 499.4 500.25 499.25 500.85 498.85" class="cls-10"/><polygon points="500.48 499.4 500.71 499.56 500.33 499.63 500.48 499.4" class="cls-10"/><polygon points="500.48 499.4 500.33 499.63 500.25 499.25 500.48 499.4" class="cls-10"/><polygon points="500.37 499.87 500.39 499.96 500.33 499.87 500.37 499.87" class="cls-10"/><polygon points="500.33 499.64 500.37 499.87 500.33 499.87 500.25 499.75 500.33 499.64" class="cls-10"/><polygon points="500.33 499.87 500.19 499.84 500.25 499.75 500.33 499.87" class="cls-10"/><polygon points="500.33 499.63 500.33 499.64 500.19 499.66 500.17 499.64 500.25 499.25 500.33 499.63" class="cls-10"/><polygon points="500.33 499.64 500.25 499.75 500.19 499.66 500.33 499.64" class="cls-10"/><path d="M402.87,9.39l97.38,489.86-.6-.4L222.3,84A496.68,496.68,0,0,1,402.87,9.39Z" class="cls-11"/><polygon points="500.25 499.25 500.17 499.64 500.02 499.4 500.25 499.25" class="cls-10"/><polygon points="500.19 499.66 500.25 499.75 500.19 499.84 500.14 499.83 500.17 499.67 500.19 499.66" class="cls-10"/><polygon points="500.25 499.25 500.02 499.4 499.65 498.85 500.25 499.25" class="cls-10"/><polygon points="500.17 499.64 500.19 499.66 500.17 499.67 500.17 499.64" class="cls-10"/><polygon points="500.19 499.84 500.11 499.96 500.14 499.83 500.19 499.84" class="cls-10"/><polygon points="500.02 499.4 500.17 499.64 500.17 499.67 499.75 499.75 499.56 499.71 500.02 499.4" class="cls-10"/><polygon points="500.17 499.67 500.14 499.83 499.75 499.75 500.17 499.67" class="cls-10"/><path d="M500.14,499.83l0,.13L222.3,915.46A502.22,502.22,0,0,1,84,777.21L499.4,499.82l.35-.07Z" class="cls-12"/><path d="M222.3,915.46,500.11,500,402.68,990.08A496.92,496.92,0,0,1,222.3,915.46Z" class="cls-13"/><path d="M500,499.4l-.46.31-490-97.8A497,497,0,0,1,84.5,221.6L499.65,498.85Z" class="cls-14"/><polygon points="499.75 499.75 499.4 499.82 499.56 499.71 499.75 499.75" class="cls-10"/><path d="M499.65,498.85,84.5,221.6A502.3,502.3,0,0,1,222.3,84Z" class="cls-15"/><path d="M499.56,499.71l-.16.11L9.58,597.59a504.41,504.41,0,0,1,0-195.68Z" class="cls-16"/><path d="M499.4,499.82,84,777.21A496.76,496.76,0,0,1,9.58,597.59Z" class="cls-17"/></g><g id="cirle_on_top_of_palette" data-name="cirle on top of palette"><circle cx="499.5" cy="500.25" r="390.5" class="cls-18"/></g><g id="M_letter" data-name="M letter"><polygon points="491.5 329.25 491.5 670.25 321.25 670.25 491.5 329.25" class="cls-19"/><polygon points="491.5 329.25 321.25 670.25 321.05 670.25 150.79 329.25 491.5 329.25" class="cls-20"/><polygon points="321.25 670.25 321.15 670.46 321.05 670.25 321.25 670.25" class="cls-19"/><polygon points="321.05 670.25 150.5 670.25 150.5 329.25 150.79 329.25 321.05 670.25" class="cls-19"/></g><g id="P_letter" data-name="P letter"><rect width="342" height="342" x="507.5" y="329.25" class="cls-20"/><rect width="100" height="341" x="507.5" y="329.25" class="cls-19"/><ellipse cx="678.5" cy="450.25" class="cls-19" rx="171" ry="121"/><ellipse cx="678.5" cy="450.25" class="cls-20" rx="60" ry="52"/><rect width="171" height="104" x="507.5" y="398.25" class="cls-20"/><rect width="185" height="69" x="507.5" y="329.25" class="cls-19"/><rect width="187" height="69" x="507.5" y="502.25" class="cls-19"/></g></g></svg>